<svg width="316" height="325" viewBox="0 0 316 325" fill="none" xmlns="http://www.w3.org/2000/svg">
<g filter="url(#filter0_d_4_51)">
<path d="M153.808 281.847C154.287 281.879 154.703 281.947 155.057 282.05C155.413 282.134 155.727 282.245 155.999 282.383L155.857 284.659C155.542 284.558 155.207 284.465 154.852 284.382C154.496 284.298 154.119 284.243 153.72 284.217C153.221 284.184 152.746 284.253 152.294 284.423C151.823 284.593 151.432 284.918 151.121 285.398C150.811 285.879 150.627 286.568 150.571 287.466L149.244 308.725L146.55 308.547L147.864 287.498C147.95 286.121 148.25 285.008 148.764 284.16C149.279 283.292 149.969 282.676 150.833 282.312C151.699 281.929 152.69 281.774 153.808 281.847Z" fill="black"/>
<path d="M125.677 291.691C125.926 290.374 126.324 289.24 126.87 288.289C127.393 287.354 128.045 286.597 128.826 286.019C129.588 285.438 130.465 285.052 131.457 284.864C132.426 284.691 133.47 284.716 134.588 284.94C135.627 285.148 136.554 285.518 137.37 286.048C138.182 286.598 138.844 287.292 139.357 288.129C139.87 288.966 140.219 289.923 140.401 291C140.561 292.092 140.516 293.297 140.267 294.613C139.936 296.362 139.362 297.777 138.547 298.858C137.728 299.959 136.71 300.713 135.493 301.122C134.272 301.551 132.906 301.614 131.396 301.311C129.965 301.024 128.771 300.449 127.815 299.584C126.836 298.735 126.158 297.641 125.781 296.301C125.38 294.976 125.345 293.44 125.677 291.691ZM137.59 294.077C137.824 292.839 137.872 291.727 137.733 290.741C137.571 289.77 137.193 288.97 136.6 288.341C136.006 287.713 135.18 287.292 134.121 287.08C133.062 286.868 132.143 286.939 131.364 287.292C130.584 287.646 129.952 288.244 129.467 289.085C128.959 289.942 128.588 290.989 128.353 292.227C128.115 293.485 128.079 294.589 128.245 295.54C128.411 296.491 128.793 297.271 129.39 297.88C129.963 298.505 130.789 298.926 131.868 299.142C133.476 299.464 134.743 299.167 135.67 298.251C136.596 297.335 137.236 295.944 137.59 294.077Z" fill="black"/>
<path d="M108.789 292.338L113.728 277.036L115.772 277.734L115.487 279.887L115.601 279.926C116.094 279.503 116.652 279.207 117.274 279.039C117.895 278.871 118.534 278.814 119.188 278.869C119.849 278.904 120.511 279.035 121.173 279.261C122.385 279.675 123.345 280.214 124.055 280.88C124.74 281.557 125.159 282.376 125.311 283.337C125.463 284.298 125.33 285.425 124.912 286.719L121.678 296.74L119.151 295.877L122.33 286.028C122.724 284.809 122.744 283.802 122.392 283.006C122.04 282.209 121.286 281.614 120.132 281.22C118.996 280.832 118.039 280.737 117.26 280.936C116.456 281.148 115.79 281.618 115.261 282.345C114.707 283.086 114.239 284.046 113.858 285.226L111.287 293.192L108.789 292.338Z" fill="black"/>
<path d="M95.5639 286.347C95.2951 286.213 95.0168 286.053 94.7291 285.866C94.415 285.688 94.1541 285.514 93.9466 285.345L95.2727 283.29C95.4802 283.46 95.7189 283.634 95.9887 283.812C96.2406 283.982 96.4919 284.129 96.7429 284.253C97.2984 284.528 97.8823 284.672 98.4943 284.685C99.1064 284.698 99.7113 284.585 100.309 284.346C100.898 284.125 101.45 283.773 101.962 283.29C102.457 282.799 102.879 282.182 103.226 281.44L106.864 273.669L109.23 274.841L102.412 289.404L100.476 288.445L101.454 285.649L101.347 285.596C100.787 285.988 100.191 286.296 99.5574 286.517C98.9153 286.757 98.257 286.866 97.5827 286.844C96.9 286.841 96.227 286.675 95.5639 286.347Z" fill="black"/>
<path d="M83.1179 278.692C81.5225 277.623 80.5689 276.42 80.2573 275.08C79.9349 273.757 80.3299 272.217 81.4422 270.46L87.0412 261.613L89.2099 263.065L83.7072 271.76C83.012 272.858 82.7343 273.839 82.874 274.703C83.0137 275.566 83.5988 276.343 84.6291 277.033C86.1082 278.023 87.3977 278.285 88.4975 277.818C89.5973 277.351 90.6499 276.324 91.6553 274.735L96.1152 267.688L98.3089 269.156L89.7099 282.744L87.94 281.559L88.787 279.492L88.6624 279.408C88.0638 279.681 87.4522 279.825 86.8276 279.84C86.1756 279.861 85.5356 279.769 84.9076 279.565C84.2795 279.361 83.6829 279.07 83.1179 278.692Z" fill="black"/>
<path d="M69.9193 268.356C68.8811 267.447 68.1846 266.438 67.8298 265.33C67.4601 264.209 67.4303 263.054 67.7404 261.864C68.0228 260.676 68.6294 259.52 69.5603 258.395L70.5741 257.17L78.8574 264.423C79.9878 262.995 80.5279 261.621 80.478 260.302C80.4002 258.985 79.7595 257.799 78.5557 256.745C77.7883 256.073 77.0538 255.55 76.3522 255.175C75.6229 254.802 74.8274 254.477 73.9659 254.201L75.4388 252.422C76.2852 252.684 77.0604 253.018 77.7643 253.422C78.4809 253.81 79.2531 254.366 80.0806 255.091C81.2242 256.092 82.0422 257.22 82.5346 258.475C83.012 259.717 83.1101 261.025 82.8287 262.4C82.5196 263.777 81.7976 265.151 80.6626 266.522C79.5404 267.878 78.3595 268.85 77.1197 269.439C75.8649 270.014 74.622 270.215 73.3909 270.04C72.1448 269.853 70.9876 269.291 69.9193 268.356ZM71.3191 266.711C72.2671 267.541 73.2808 267.884 74.3604 267.74C75.4122 267.598 76.4498 267.019 77.4733 266.002L71.3116 260.606C70.725 261.315 70.3202 262.024 70.0973 262.732C69.8744 263.44 69.86 264.132 70.054 264.807C70.2203 265.484 70.642 266.119 71.3191 266.711Z" fill="black"/>
<path d="M62.5948 261.124L60.7283 259.01L65.1115 250.155C65.3737 249.637 65.6346 249.147 65.8941 248.685C66.1403 248.209 66.3925 247.755 66.6506 247.322C66.8941 246.903 67.1502 246.514 67.4187 246.153L67.3393 246.063C66.8945 246.315 66.2938 246.616 65.537 246.967C64.7657 247.332 63.9878 247.689 63.2032 248.039L54.3742 251.814L52.4879 249.677L70.4478 242.38C71.4301 241.982 72.3637 241.726 73.2487 241.61C74.135 241.466 74.9692 241.535 75.7513 241.817C76.5348 242.07 77.2707 242.586 77.9591 243.366C78.2768 243.726 78.5328 244.061 78.7273 244.372C78.9363 244.669 79.1049 244.935 79.2332 245.171L77.6986 246.605C77.5822 246.413 77.4393 246.19 77.27 245.938C77.0874 245.671 76.8836 245.41 76.6586 245.155C76.2482 244.69 75.8097 244.375 75.3431 244.209C74.8779 244.014 74.3786 243.947 73.8453 244.008C73.3265 244.054 72.7824 244.193 72.213 244.424L70.1005 245.249L62.5948 261.124Z" fill="black"/>
<path d="M36.9468 226.081L51.1158 218.478L52.31 220.832L38.141 228.435L36.9468 226.081ZM32.217 230.082C32.036 229.726 32.0011 229.347 32.1121 228.947C32.1964 228.539 32.4941 228.198 33.0052 227.923C33.4987 227.659 33.9411 227.603 34.3326 227.756C34.715 227.891 34.9967 228.137 35.1777 228.494C35.3767 228.886 35.4207 229.282 35.3097 229.682C35.1987 230.082 34.8964 230.414 34.403 230.679C33.8919 230.953 33.454 231.018 33.0892 230.874C32.7067 230.739 32.416 230.475 32.217 230.082Z" fill="black"/>
<path d="M29.9503 210.06C29.3035 208.252 29.2546 206.72 29.8036 205.465C30.3339 204.217 31.5717 203.224 33.517 202.488L43.309 198.781L44.1882 201.239L34.5646 204.882C33.3488 205.342 32.5393 205.958 32.1361 206.731C31.7329 207.504 31.7402 208.474 32.158 209.641C32.7576 211.317 33.6396 212.298 34.8039 212.584C35.9682 212.871 37.4295 212.681 39.1878 212.016L46.9877 209.063L47.877 211.549L32.8383 217.241L32.1208 215.236L34.0376 214.093L33.9871 213.952C33.342 213.811 32.7636 213.56 32.2517 213.198C31.7144 212.824 31.2538 212.367 30.8699 211.829C30.4859 211.29 30.1794 210.7 29.9503 210.06Z" fill="black"/>
<path d="M38.8367 187.449C38.75 187.058 38.632 186.665 38.4826 186.269C38.3137 185.877 38.1622 185.563 38.028 185.328L39.9848 184.868C40.1817 185.11 40.3755 185.475 40.566 185.964C40.776 186.449 40.933 186.926 41.037 187.395C41.219 188.215 41.2517 189.008 41.135 189.775C40.9946 190.527 40.6216 191.2 40.016 191.794C39.4104 192.388 38.4748 192.834 37.2092 193.131L28.0969 195.27L28.5908 197.496L27.3642 197.784L25.8415 195.769L22.2846 195.525L21.9466 194.002L25.539 193.159L24.5316 188.619L26.5176 188.153L27.525 192.693L36.5788 190.567C37.5329 190.343 38.1938 189.952 38.5614 189.393C38.9052 188.819 38.997 188.171 38.8367 187.449Z" fill="black"/>
<path d="M30.2115 167.969C31.5449 167.836 32.7459 167.898 33.8144 168.154C34.8612 168.392 35.7736 168.804 36.5518 169.39C37.328 169.956 37.9491 170.688 38.415 171.586C38.8592 172.467 39.1345 173.474 39.2409 174.609C39.3399 175.665 39.2523 176.658 38.9781 177.59C38.684 178.524 38.2095 179.354 37.5547 180.083C36.8998 180.811 36.0826 181.415 35.1031 181.894C34.1018 182.355 32.9344 182.651 31.601 182.784C29.8297 182.959 28.309 182.809 27.0389 182.332C25.7489 181.857 24.7332 181.094 23.9918 180.042C23.2304 178.992 22.7778 177.7 22.634 176.167C22.4977 174.713 22.7065 173.406 23.2606 172.246C23.7929 171.068 24.647 170.109 25.8231 169.369C26.9774 168.611 28.4402 168.144 30.2115 167.969ZM31.346 180.066C32.5999 179.941 33.6796 179.673 34.5851 179.262C35.4688 178.833 36.1268 178.245 36.559 177.498C36.9912 176.752 37.1569 175.841 37.056 174.766C36.9552 173.691 36.6233 172.829 36.0603 172.182C35.4974 171.534 34.7433 171.096 33.7979 170.869C32.8307 170.623 31.7202 170.562 30.4664 170.687C29.1926 170.813 28.1238 171.09 27.26 171.517C26.3961 171.945 25.7581 172.531 25.3458 173.275C24.9117 174.001 24.7461 174.912 24.8488 176.007C25.0019 177.64 25.6504 178.772 26.7942 179.402C27.938 180.032 29.4553 180.253 31.346 180.066Z" fill="black"/>
<path d="M38.5547 139.79C38.6168 139.395 38.6509 138.985 38.6569 138.56C38.6432 138.132 38.6171 137.783 38.5786 137.513L40.5613 137.843C40.656 138.142 40.7024 138.556 40.7005 139.082C40.7184 139.613 40.6901 140.115 40.6156 140.589C40.4852 141.419 40.2259 142.166 39.8379 142.832C39.4333 143.474 38.8417 143.953 38.0631 144.27C37.2846 144.586 36.2541 144.638 34.9717 144.425L25.7385 142.889L25.3845 145.142L24.1415 144.935L23.4644 142.481L20.2538 140.883L20.496 139.342L24.1361 139.947L24.8581 135.353L26.8705 135.688L26.1484 140.281L35.3224 141.807C36.2892 141.968 37.045 141.86 37.5899 141.485C38.1182 141.086 38.4398 140.521 38.5547 139.79Z" fill="black"/>
<path d="M26.7009 127.097C27.0643 127.208 27.4318 127.341 27.8033 127.497C28.1803 127.633 28.5163 127.767 28.8113 127.898L28.8612 127.725C28.4198 127.235 28.0991 126.688 27.899 126.083C27.6988 125.478 27.6014 124.842 27.6067 124.175C27.5928 123.502 27.6801 122.838 27.8687 122.185C28.2291 120.936 28.7294 119.959 29.3695 119.256C29.996 118.527 30.7816 118.077 31.7261 117.905C32.6706 117.734 33.8028 117.849 35.1226 118.252L45.1364 121.309L44.4128 123.817L34.5712 120.812C33.3278 120.433 32.3197 120.428 31.5468 120.799C30.7739 121.169 30.2155 121.95 29.8718 123.141C29.5391 124.294 29.4984 125.265 29.7499 126.052C29.9822 126.834 30.4776 127.498 31.236 128.043C31.9809 128.563 32.9559 129.007 34.161 129.375L42.109 131.801L41.377 134.338L19.5705 127.681L20.3024 125.144L26.7009 127.097Z" fill="black"/>
<path d="M33.6486 106.021C34.1941 104.754 34.9337 103.794 35.8671 103.143C36.8085 102.473 37.8825 102.127 39.0892 102.105C40.2856 102.057 41.5482 102.335 42.8769 102.94L44.324 103.599L39.9715 113.712C41.6437 114.429 43.0906 114.583 44.3122 114.172C45.5235 113.735 46.4454 112.782 47.0779 111.312C47.4811 110.375 47.755 109.511 47.8995 108.72C48.0338 107.902 48.1031 107.033 48.1075 106.112L50.2099 107.07C50.2133 107.972 50.1298 108.824 49.9591 109.625C49.8067 110.434 49.513 111.344 49.0782 112.355C48.4773 113.751 47.6615 114.862 46.6307 115.689C45.6079 116.498 44.4109 116.953 43.0396 117.053C41.6581 117.127 40.1573 116.796 38.5373 116.058C36.9356 115.329 35.6759 114.437 34.7585 113.382C33.849 112.308 33.2943 111.144 33.0944 109.889C32.9025 108.615 33.0872 107.326 33.6486 106.021ZM35.6026 106.944C35.1045 108.101 35.0823 109.19 35.536 110.209C35.9795 111.202 36.8288 112.061 38.084 112.787L41.3217 105.264C40.4844 104.883 39.701 104.68 38.9714 104.655C38.2418 104.63 37.5895 104.806 37.0144 105.181C36.429 105.53 35.9583 106.117 35.6026 106.944Z" fill="black"/>
<path d="M55.7704 70.5479L68.203 80.7457L66.8795 82.4528L64.9937 81.4101L64.9202 81.505C65.1448 82.1288 65.2309 82.7683 65.1783 83.4233C65.1258 84.0784 64.9653 84.7096 64.6969 85.3168C64.4439 85.9368 64.1029 86.5233 63.674 87.0765C62.8897 88.0881 62.0733 88.8148 61.2249 89.2566C60.3732 89.6698 59.4801 89.7777 58.5455 89.58C57.611 89.3823 56.618 88.8522 55.5665 87.9897L47.4249 81.3116L49.0609 79.2016L57.0633 85.7655C58.053 86.5772 58.9729 86.9569 59.8231 86.9044C60.6733 86.8519 61.4722 86.3436 62.2197 85.3794C62.955 84.4311 63.3609 83.5487 63.4374 82.7323C63.5106 81.8873 63.3006 81.0815 62.8072 80.3148C62.3106 79.5197 61.583 78.7289 60.6242 77.9425L54.1528 72.6343L55.7704 70.5479Z" fill="black"/>
<path d="M64.4816 62.3619C65.8419 61.0069 67.1914 60.3258 68.5301 60.3185C69.855 60.2967 71.2305 61.043 72.6563 62.5574L79.8336 70.1802L77.9845 72.0221L70.9306 64.5304C70.0394 63.5839 69.169 63.0824 68.3194 63.0257C67.4697 62.9691 66.6056 63.3783 65.7271 64.2534C64.466 65.5096 63.9373 66.7417 64.1411 67.9496C64.3448 69.1576 65.091 70.4459 66.3798 71.8147L72.097 77.8867L70.2266 79.7498L59.2035 68.0426L60.7126 66.5394L62.4902 67.8586L62.5965 67.7528C62.4676 67.091 62.464 66.4456 62.5857 65.8165C62.7078 65.1587 62.9338 64.5385 63.2639 63.9558C63.5939 63.3731 63.9998 62.8418 64.4816 62.3619Z" fill="black"/>
<path d="M78.3654 57.2642C78.5533 57.5232 78.7841 57.8753 79.0578 58.3205C79.3473 58.7536 79.5957 59.13 79.803 59.4497L79.8982 59.3767C79.8994 59.1741 79.9071 58.8783 79.9213 58.4894C79.9355 58.1004 79.9497 57.7115 79.9639 57.3225C79.9822 56.9052 80.004 56.5608 80.0293 56.2893L80.9097 48.7706L83.3608 46.8891L82.2315 56.4136L93.1613 59.6299L90.6388 61.5663L81.8079 58.8937L81.2901 61.2949L84.7609 66.0783L82.6906 67.6676L69.3005 49.2137L71.3708 47.6245L78.3654 57.2642Z" fill="black"/>
<path d="M92.232 41.1982C93.8934 40.2358 95.3738 39.9213 96.6733 40.2545C97.9631 40.5703 99.1075 41.6403 100.106 43.4647L105.135 52.6482L102.876 53.9565L97.9345 44.9309C97.3101 43.7906 96.5933 43.0852 95.7841 42.8145C94.9748 42.5439 94.0337 42.7194 92.9607 43.3409C91.4205 44.2331 90.5963 45.2882 90.4882 46.5062C90.38 47.7242 90.7774 49.1577 91.6803 50.8066L95.6858 58.1218L93.4014 59.4451L85.6786 45.341L87.5217 44.2734L88.911 45.9988L89.0408 45.9236C89.0833 45.2519 89.2432 44.6279 89.5202 44.0515C89.805 43.4475 90.181 42.9062 90.6484 42.4275C91.1157 41.9488 91.6436 41.5391 92.232 41.1982Z" fill="black"/>
<path d="M116.848 38.7921C117.339 40.039 117.609 41.2155 117.657 42.3217C117.717 43.4015 117.574 44.4032 117.228 45.3269C116.901 46.2429 116.373 47.0584 115.645 47.7733C114.927 48.462 114.042 49.0254 112.99 49.4637C112.011 49.8712 111.041 50.0804 110.078 50.0914C109.108 50.0838 108.187 49.8718 107.314 49.4556C106.441 49.0393 105.642 48.4297 104.918 47.6266C104.204 46.7973 103.602 45.7592 103.111 44.5123C102.46 42.856 102.187 41.3449 102.294 39.979C102.394 38.5945 102.843 37.3893 103.643 36.3632C104.435 35.3185 105.542 34.5001 106.964 33.9081C108.312 33.3469 109.614 33.1619 110.871 33.3532C112.14 33.5182 113.287 34.0584 114.314 34.9739C115.351 35.8631 116.196 37.1358 116.848 38.7921ZM105.632 43.4628C106.093 44.6353 106.644 45.5973 107.283 46.349C107.934 47.0744 108.674 47.5351 109.504 47.7313C110.333 47.9275 111.246 47.818 112.243 47.4028C113.24 46.9876 113.97 46.4129 114.433 45.6785C114.896 44.9442 115.107 44.0874 115.066 43.1084C115.035 42.103 114.789 41.0141 114.328 39.8416C113.859 38.6506 113.303 37.7017 112.659 36.9949C112.016 36.2881 111.283 35.846 110.461 35.6684C109.65 35.4646 108.737 35.5741 107.722 35.9969C106.208 36.6274 105.307 37.5873 105.019 38.8767C104.732 40.1662 104.936 41.6949 105.632 43.4628Z" fill="black"/>
<path d="M126.886 34.8602C126.666 34.4845 126.449 34.1185 126.234 33.7621C126.015 33.3864 125.812 33.0371 125.626 32.7143C125.455 32.3669 125.292 32.0486 125.135 31.7593C124.979 31.4701 124.854 31.2241 124.761 31.0213L124.646 31.0526C124.661 31.2762 124.67 31.5534 124.672 31.8843C124.693 32.2101 124.702 32.57 124.7 32.9643C124.716 33.3534 124.718 33.767 124.706 34.2052C124.709 34.6189 124.694 35.0474 124.663 35.4909L124.113 44.9909L121.216 45.7722L112.986 31.339L115.622 30.6281L119.885 38.364C120.183 38.8844 120.473 39.417 120.757 39.962C121.035 40.4876 121.289 40.9989 121.519 41.4962C121.764 41.9688 121.952 42.384 122.085 42.7418L122.2 42.7106C122.199 42.4624 122.192 42.1535 122.181 41.7838C122.169 41.4141 122.152 41.0251 122.131 40.6166C122.129 40.203 122.126 39.7893 122.124 39.3757C122.141 38.9568 122.158 38.5794 122.176 38.2432L122.689 28.7219L125.47 27.9719L130.373 36.0323C130.622 36.4416 130.878 36.88 131.142 37.3474C131.425 37.8096 131.686 38.2673 131.925 38.7206C132.16 39.1545 132.343 39.5503 132.476 39.9081L132.591 39.8768C132.546 39.537 132.51 39.1118 132.483 38.6012C132.47 38.0661 132.457 37.4896 132.444 36.8717C132.446 36.2293 132.449 35.5965 132.456 34.9735L132.508 26.0735L135.115 25.3704L134.772 42.116L131.789 42.9207L126.886 34.8602Z" fill="black"/>
<path d="M141.371 24.6916C143.275 24.4392 144.771 24.7149 145.859 25.5188C146.945 26.3028 147.617 27.7267 147.876 29.7906L149.178 40.1793L146.591 40.5224L145.311 30.3123C145.149 29.0224 144.741 28.0981 144.087 27.5393C143.432 26.9805 142.49 26.7826 141.261 26.9456C139.496 27.1797 138.339 27.8375 137.79 28.9191C137.24 30.0007 137.082 31.4743 137.316 33.3397L138.353 41.6149L135.736 41.962L133.736 26.0068L135.847 25.7268L136.506 27.8485L136.655 27.8288C136.942 27.2258 137.321 26.7116 137.792 26.286C138.28 25.8379 138.83 25.4826 139.442 25.2198C140.054 24.9571 140.697 24.781 141.371 24.6916Z" fill="black"/>
<path d="M159.746 36.85C159.566 37.55 159.336 38.31 159.056 39.13C158.776 39.95 158.466 40.76 158.126 41.56C157.806 42.38 157.486 43.15 157.166 43.87H155.216C155.416 43.11 155.606 42.29 155.786 41.41C155.986 40.55 156.166 39.7 156.326 38.86C156.486 38 156.616 37.22 156.716 36.52H159.536L159.746 36.85Z" fill="black"/>
<path d="M192.245 28.3385C193.577 28.6978 194.642 29.2958 195.44 30.1324C196.258 30.9742 196.781 31.9958 197.012 33.1971C197.266 34.3843 197.213 35.6852 196.853 37.1L196.46 38.6407L185.83 35.7735C185.419 37.5475 185.519 39.0142 186.132 40.1736C186.769 41.3189 187.859 42.0998 189.404 42.5165C190.389 42.7821 191.28 42.9293 192.078 42.958C192.899 42.9725 193.76 42.9147 194.66 42.7846L194.09 45.023C193.209 45.1583 192.363 45.1993 191.551 45.146C190.734 45.1121 189.794 44.9519 188.732 44.6655C187.265 44.2697 186.038 43.6177 185.052 42.7096C184.085 41.8068 183.434 40.6783 183.098 39.3243C182.786 37.956 182.85 36.4095 183.29 34.6847C183.725 32.9792 184.378 31.5916 185.249 30.5217C186.14 29.457 187.181 28.7332 188.372 28.3503C189.583 27.9726 190.874 27.9687 192.245 28.3385ZM191.682 30.4237C190.466 30.0956 189.399 30.2324 188.482 30.8343C187.589 31.422 186.897 32.3953 186.406 33.7542L194.314 35.887C194.541 34.9955 194.604 34.1839 194.501 33.452C194.399 32.7202 194.115 32.0947 193.649 31.5754C193.207 31.042 192.551 30.6581 191.682 30.4237Z" fill="black"/>
<path d="M214.69 36.546C216.37 37.2456 217.453 38.2058 217.94 39.4264C218.434 40.6285 218.3 42.1972 217.538 44.1327L213.703 53.8752L211.294 52.8718L215.085 43.241C215.546 42.0686 215.645 41.0808 215.381 40.2777C215.135 39.4823 214.495 38.8693 213.461 38.4387C212.021 37.839 210.822 37.8272 209.865 38.4033C208.926 38.987 208.142 40.0791 207.512 41.6796L204.259 49.9426L201.85 48.9392L205.641 39.3084C205.948 38.5268 206.094 37.8293 206.078 37.216C206.068 36.584 205.894 36.0455 205.553 35.6004C205.212 35.1554 204.691 34.7868 203.99 34.4946C202.993 34.0794 202.124 33.9667 201.383 34.1564C200.649 34.3275 199.996 34.7593 199.422 35.4519C198.867 36.1522 198.359 37.0886 197.898 38.261L194.843 46.0215L192.406 45.0066L198.295 30.044L200.262 30.8628L199.82 33.0505L199.958 33.1082C200.477 32.7178 201.024 32.4474 201.599 32.2969C202.2 32.1356 202.81 32.0864 203.43 32.1496C204.05 32.2128 204.655 32.3674 205.246 32.6134C206.391 33.0901 207.261 33.6907 207.857 34.4154C208.471 35.1477 208.785 36.015 208.799 37.0171L208.937 37.0748C209.773 36.4263 210.696 36.0742 211.706 36.0184C212.735 35.9703 213.73 36.1462 214.69 36.546Z" fill="black"/>
<path d="M221.457 39.2489C221.131 39.8453 220.806 40.3966 220.483 40.9029C220.187 41.4016 219.94 41.79 219.742 42.0682L219.872 42.1434C220.597 41.7775 221.416 41.5933 222.329 41.5909C223.242 41.5884 224.244 41.9029 225.334 42.5345C227.065 43.537 228.113 44.953 228.479 46.7824C228.872 48.6044 228.406 50.7258 227.08 53.1466C226.196 54.7605 225.214 55.971 224.134 56.7779C223.071 57.5948 221.959 58.0246 220.795 58.0672C219.632 58.1097 218.48 57.8002 217.338 57.1386C216.247 56.507 215.466 55.789 214.995 54.9845C214.524 54.18 214.243 53.3818 214.152 52.5899L213.97 52.4846L212.523 54.0033L210.888 53.0559L221.838 33.0576L224.123 34.3808L221.457 39.2489ZM223.893 44.2298C222.906 43.6584 222.022 43.4002 221.24 43.4554C220.467 43.4929 219.743 43.8362 219.069 44.4853C218.404 45.1168 217.74 46.0378 217.077 47.2482L217.019 47.3535C216.068 49.0902 215.615 50.5838 215.66 51.8343C215.732 53.0774 216.529 54.14 218.052 55.0222C219.298 55.744 220.478 55.8154 221.593 55.2366C222.725 54.6677 223.772 53.5062 224.732 51.7519C225.702 49.9801 226.121 48.4665 225.988 47.2109C225.872 45.9654 225.174 44.9717 223.893 44.2298Z" fill="black"/>
<path d="M241.493 53.83C241.731 54.0127 241.973 54.2237 242.219 54.4631C242.493 54.6985 242.715 54.9196 242.886 55.1265L241.197 56.8924C241.026 56.6855 240.826 56.4684 240.595 56.2412C240.381 56.0262 240.163 55.8334 239.94 55.6629C239.449 55.2854 238.904 55.0313 238.307 54.9008C237.711 54.7702 237.097 54.7652 236.466 54.8858C235.847 54.9902 235.24 55.2303 234.646 55.6062C234.068 55.9943 233.538 56.5201 233.057 57.1838L228.018 64.1283L225.924 62.5208L235.367 49.5059L237.081 50.8212L235.592 53.3835L235.687 53.4565C236.309 53.1779 236.952 52.9905 237.614 52.8943C238.289 52.7819 238.954 52.8011 239.61 52.952C240.278 53.0867 240.906 53.3794 241.493 53.83Z" fill="black"/>
<path d="M252.169 63.7304C253.558 65.1136 254.29 66.45 254.367 67.7395C254.443 69.029 253.837 70.3582 252.548 71.7269L245.042 79.6992L243.681 78.3442L244.883 76.3243L244.798 76.2396C244.074 76.3373 243.399 76.3553 242.77 76.2936C242.17 76.2315 241.581 76.0402 241.004 75.7196C240.441 75.4131 239.841 74.9423 239.204 74.3071C238.523 73.6296 238.024 72.8919 237.704 72.0938C237.399 71.31 237.33 70.5079 237.498 69.6878C237.68 68.853 238.141 68.0425 238.881 67.2562C239.978 66.0913 241.268 65.6404 242.75 65.9035C244.246 66.152 245.949 67.1716 247.861 68.9624L249.856 70.8235L250.514 70.1246C251.433 69.149 251.865 68.2672 251.811 67.4793C251.756 66.6914 251.353 65.9234 250.602 65.1753C250.007 64.5825 249.351 64.1126 248.635 63.7655C247.932 63.4039 247.237 63.1067 246.55 62.8739L247.333 60.8607C248.09 61.078 248.897 61.4308 249.756 61.919C250.628 62.3927 251.432 62.9965 252.169 63.7304ZM246.84 70.5276C245.368 69.1744 244.164 68.4265 243.227 68.2837C242.305 68.1551 241.494 68.4621 240.795 69.2047C240.178 69.8599 239.917 70.531 240.012 71.2179C240.12 71.9189 240.479 72.5728 241.089 73.1798C242.052 74.1395 243.107 74.6676 244.251 74.764C245.41 74.8458 246.524 74.3189 247.593 73.1831L248.581 72.1347L246.84 70.5276Z" fill="black"/>
<path d="M252.504 88.1843C251.634 87.0621 251.08 85.8746 250.842 84.6216C250.617 83.3845 250.779 82.1261 251.33 80.8466C251.894 79.5829 252.91 78.3486 254.379 77.1436C255.91 75.8879 257.357 75.1277 258.72 74.8629C260.083 74.598 261.332 74.7243 262.467 75.2416C263.614 75.7747 264.628 76.6102 265.511 77.7482C266.013 78.3963 266.428 79.0777 266.754 79.7925C267.096 80.4945 267.321 81.1114 267.43 81.6429L265.24 82.3917C265.086 81.8982 264.874 81.3478 264.605 80.7405C264.337 80.1333 264.031 79.6084 263.688 79.1658C263.026 78.3123 262.303 77.7548 261.519 77.4933C260.734 77.2319 259.89 77.2522 258.985 77.5542C258.081 77.8563 257.111 78.4323 256.075 79.2821C255.085 80.0939 254.347 80.9195 253.859 81.7589C253.372 82.5984 253.158 83.4327 253.219 84.2618C253.28 85.091 253.623 85.9086 254.248 86.7147C254.788 87.4101 255.329 87.9616 255.873 88.369C256.428 88.7923 256.978 89.1427 257.523 89.4204L255.713 90.9044C255.166 90.6552 254.636 90.3142 254.123 89.8814C253.607 89.4771 253.068 88.9114 252.504 88.1843Z" fill="black"/>
<path d="M273.945 90.6467C274.646 91.8356 274.99 93.0109 274.979 94.1726C274.977 95.3516 274.642 96.4561 273.972 97.486C273.33 98.5227 272.39 99.4272 271.151 100.2L269.801 101.041L264.211 91.5558C262.687 92.5532 261.741 93.6849 261.373 94.951C261.033 96.2237 261.268 97.5493 262.081 98.9277C262.599 99.8064 263.132 100.534 263.681 101.111C264.257 101.694 264.911 102.253 265.643 102.786L263.683 104.008C262.961 103.492 262.329 102.932 261.787 102.327C261.228 101.733 260.669 100.962 260.111 100.015C259.339 98.7053 258.917 97.3782 258.843 96.0336C258.781 94.7062 259.099 93.4355 259.799 92.2214C260.527 91.0139 261.645 89.9393 263.156 88.9975C264.649 88.0663 266.078 87.5172 267.442 87.3503C268.815 87.2005 270.06 87.4023 271.175 87.9557C272.301 88.5264 273.224 89.4234 273.945 90.6467ZM272.097 91.7637C271.457 90.6782 270.601 90.0336 269.53 89.83C268.485 89.633 267.317 89.8551 266.024 90.4964L270.182 97.5521C270.963 97.0654 271.57 96.5215 272.005 95.9205C272.44 95.3195 272.672 94.6686 272.7 93.9679C272.755 93.2738 272.554 92.5391 272.097 91.7637Z" fill="black"/>
<path d="M274.735 130.378C274.846 130.763 274.989 131.148 275.162 131.534C275.355 131.914 275.526 132.217 275.675 132.444L273.752 133.031C273.541 132.803 273.325 132.45 273.104 131.974C272.864 131.504 272.678 131.038 272.545 130.577C272.312 129.77 272.229 128.979 272.298 128.206C272.39 127.446 272.72 126.749 273.287 126.116C273.853 125.483 274.758 124.977 276.002 124.597L284.954 121.864L284.322 119.674L285.527 119.306L287.172 121.219L290.734 121.229L291.166 122.728L287.637 123.805L288.926 128.273L286.975 128.869L285.686 124.401L276.791 127.116C275.854 127.402 275.219 127.837 274.888 128.419C274.581 129.014 274.53 129.667 274.735 130.378Z" fill="black"/>
<path d="M284.539 149.259C283.217 149.478 282.015 149.496 280.933 149.311C279.874 149.142 278.938 148.791 278.126 148.257C277.316 147.743 276.651 147.053 276.13 146.186C275.632 145.337 275.294 144.349 275.117 143.223C274.953 142.175 274.978 141.178 275.194 140.23C275.429 139.278 275.85 138.417 276.458 137.647C277.066 136.877 277.843 136.221 278.79 135.678C279.76 135.152 280.906 134.779 282.228 134.559C283.984 134.267 285.51 134.317 286.807 134.71C288.123 135.099 289.184 135.795 289.989 136.796C290.814 137.794 291.346 139.054 291.585 140.575C291.812 142.018 291.685 143.336 291.205 144.531C290.748 145.743 289.956 146.756 288.829 147.572C287.725 148.404 286.295 148.967 284.539 149.259ZM282.652 137.256C281.409 137.463 280.349 137.801 279.471 138.271C278.617 138.758 277.997 139.388 277.612 140.162C277.228 140.935 277.119 141.856 277.287 142.923C277.455 143.989 277.84 144.828 278.442 145.437C279.043 146.047 279.823 146.434 280.78 146.599C281.76 146.781 282.872 146.768 284.115 146.562C285.377 146.352 286.426 146.005 287.261 145.521C288.096 145.038 288.696 144.411 289.061 143.641C289.449 142.887 289.557 141.967 289.386 140.88C289.132 139.26 288.414 138.173 287.234 137.619C286.054 137.065 284.526 136.944 282.652 137.256Z" fill="black"/>
<path d="M276.553 158.575C276.491 156.576 277.13 154.954 278.472 153.71C279.834 152.464 281.894 151.796 284.653 151.705C287.411 151.614 289.509 152.145 290.945 153.298C292.403 154.471 293.162 156.056 293.225 158.056C293.251 158.895 293.164 159.628 292.963 160.255C292.783 160.882 292.52 161.431 292.174 161.902C291.829 162.374 291.441 162.777 291.011 163.111L291.017 163.291C291.276 163.263 291.655 163.21 292.153 163.134C292.671 163.077 293.08 163.043 293.38 163.033L299.796 162.821L299.879 165.46L277.091 166.212L277.025 164.083L279.171 163.622L279.168 163.502C278.698 163.197 278.266 162.821 277.872 162.374C277.498 161.926 277.191 161.386 276.951 160.753C276.712 160.141 276.579 159.415 276.553 158.575ZM278.755 158.923C278.808 160.622 279.305 161.796 280.245 162.446C281.207 163.114 282.627 163.418 284.506 163.356L284.985 163.34C286.984 163.274 288.503 162.894 289.542 162.199C290.601 161.504 291.103 160.267 291.047 158.488C291.003 157.068 290.4 156.018 289.238 155.335C288.097 154.673 286.577 154.373 284.678 154.435C282.759 154.499 281.281 154.898 280.243 155.632C279.206 156.387 278.71 157.484 278.755 158.923Z" fill="black"/>
<path d="M292.568 177.098C292.385 179.049 291.821 180.45 290.878 181.301C289.934 182.152 288.527 182.485 286.656 182.299L275.76 181.218L275.939 179.307L278.255 179.024L278.267 178.905C277.732 178.389 277.29 177.863 276.938 177.326C276.605 176.81 276.379 176.225 276.259 175.57C276.138 174.935 276.119 174.169 276.203 173.273C276.293 172.318 276.544 171.468 276.955 170.725C277.364 170.002 277.938 169.456 278.675 169.087C279.433 168.72 280.349 168.59 281.424 168.697C283.016 168.854 284.181 169.603 284.919 170.943C285.677 172.284 285.974 174.263 285.809 176.879L285.643 179.606L286.599 179.701C287.932 179.833 288.885 179.636 289.456 179.11C290.028 178.584 290.363 177.794 290.462 176.738C290.54 175.902 290.486 175.092 290.298 174.31C290.13 173.53 289.918 172.795 289.661 172.106L291.707 171.496C292.02 172.23 292.261 173.088 292.43 174.069C292.619 175.053 292.665 176.062 292.568 177.098ZM283.957 177.027C284.064 175.028 283.875 173.613 283.391 172.781C282.905 171.969 282.154 171.512 281.139 171.412C280.243 171.323 279.561 171.526 279.093 172.023C278.623 172.539 278.347 173.225 278.267 174.081C278.14 175.435 278.403 176.597 279.055 177.566C279.727 178.537 280.84 179.1 282.392 179.254L283.825 179.396L283.957 177.027Z" fill="black"/>
<path d="M291.145 187.007L290.534 189.76L280.873 191.066C280.304 191.138 279.758 191.195 279.237 191.237C278.711 191.299 278.199 191.343 277.702 191.37C277.224 191.401 276.762 191.406 276.316 191.383L276.29 191.5C276.751 191.732 277.342 192.066 278.065 192.503C278.807 192.944 279.547 193.395 280.284 193.856L288.455 199.132L287.837 201.915L271.523 190.967C270.632 190.367 269.882 189.729 269.274 189.052C268.643 188.39 268.212 187.653 267.983 186.839C267.73 186.04 267.717 185.133 267.942 184.118C268.046 183.649 268.166 183.246 268.303 182.908C268.419 182.566 268.535 182.274 268.65 182.034L270.694 182.514C270.608 182.72 270.513 182.965 270.409 183.248C270.3 183.552 270.209 183.869 270.136 184.201C270.001 184.806 270.003 185.351 270.142 185.836C270.256 186.335 270.493 186.791 270.852 187.204C271.192 187.613 271.62 187.99 272.137 188.338L274.029 189.645L291.145 187.007Z" fill="black"/>
<path d="M289.033 214.777L281.996 211.472L282.552 209.918L289.993 212.093L289.033 214.777Z" fill="black"/>
<path d="M264.874 226.967C263.958 226.475 263.309 225.832 262.928 225.037C262.546 224.243 262.414 223.332 262.531 222.306C262.648 221.279 263.005 220.178 263.602 219C264.109 218.001 264.627 217.179 265.156 216.533C265.677 215.904 266.218 215.389 266.781 214.988L268.895 216.122C268.324 216.542 267.711 217.087 267.057 217.757C266.412 218.455 265.877 219.223 265.452 220.061C264.845 221.256 264.592 222.22 264.69 222.954C264.807 223.697 265.182 224.239 265.817 224.579C266.169 224.769 266.536 224.841 266.917 224.796C267.299 224.751 267.762 224.545 268.306 224.179C268.841 223.831 269.525 223.279 270.357 222.523C271.18 221.785 271.935 221.18 272.622 220.709C273.309 220.238 273.99 219.957 274.665 219.865C275.339 219.773 276.064 219.935 276.839 220.351C278.038 220.994 278.714 221.981 278.869 223.312C279.014 224.661 278.68 226.138 277.865 227.743C277.422 228.617 276.922 229.382 276.366 230.036C275.818 230.718 275.227 231.308 274.593 231.808L273.15 230.012C273.525 229.714 273.887 229.375 274.237 228.996C274.595 228.643 274.923 228.263 275.219 227.855C275.533 227.456 275.808 227.025 276.043 226.561C276.532 225.598 276.749 224.773 276.694 224.085C276.648 223.425 276.36 222.953 275.832 222.67C275.444 222.461 275.05 222.398 274.651 222.478C274.269 222.568 273.81 222.81 273.274 223.203C272.747 223.624 272.076 224.194 271.262 224.915C270.466 225.645 269.729 226.236 269.051 226.689C268.373 227.142 267.692 227.401 267.009 227.466C266.344 227.54 265.632 227.374 264.874 226.967Z" fill="black"/>
<path d="M252.221 258.612L254.902 255.576L244.642 245.992L246.389 244.013L256.649 253.597L258.516 251.484L259.415 252.323L258.206 255.051L258.886 255.686C259.894 256.628 260.58 257.543 260.944 258.43C261.294 259.332 261.358 260.211 261.134 261.069C260.91 261.927 260.434 262.768 259.706 263.593C259.282 264.072 258.854 264.466 258.422 264.774C257.992 265.111 257.6 265.373 257.246 265.563L256.19 263.632C256.475 263.461 256.793 263.252 257.144 263.005C257.495 262.759 257.816 262.47 258.107 262.141C258.69 261.481 258.907 260.781 258.76 260.042C258.614 259.331 258.081 258.546 257.16 257.686L256.393 256.969L253.712 260.005L252.221 258.612Z" fill="black"/>
<path d="M234.277 267.054C233.423 266.021 232.8 264.986 232.407 263.948C232.013 262.938 231.834 261.938 231.872 260.949C231.894 259.973 232.138 259.029 232.603 258.117C233.065 257.233 233.725 256.416 234.583 255.665C235.381 254.967 236.233 254.46 237.139 254.144C238.059 253.844 238.996 253.754 239.952 253.874C240.907 253.994 241.853 254.321 242.79 254.857C243.724 255.421 244.618 256.219 245.472 257.251C246.607 258.622 247.338 259.976 247.664 261.311C248.003 262.661 247.956 263.952 247.521 265.183C247.099 266.429 246.309 267.559 245.151 268.574C244.052 269.536 242.879 270.125 241.63 270.341C240.38 270.586 239.126 270.435 237.869 269.888C236.609 269.37 235.412 268.425 234.277 267.054ZM243.418 259.05C242.615 258.079 241.793 257.337 240.953 256.824C240.111 256.339 239.267 256.134 238.421 256.21C237.576 256.286 236.747 256.68 235.934 257.392C235.122 258.103 234.612 258.882 234.404 259.728C234.196 260.575 234.265 261.457 234.611 262.377C234.954 263.325 235.528 264.285 236.331 265.255C237.147 266.241 237.97 266.969 238.8 267.438C239.629 267.908 240.461 268.097 241.293 268.005C242.124 267.942 242.953 267.549 243.78 266.824C245.014 265.744 245.565 264.544 245.433 263.224C245.301 261.905 244.63 260.513 243.418 259.05Z" fill="black"/>
<path d="M228.153 281.402C227.904 281.568 227.628 281.73 227.324 281.885C227.014 282.068 226.735 282.207 226.487 282.301L225.461 280.064C225.71 279.97 225.977 279.851 226.265 279.707C226.535 279.574 226.787 279.429 227.02 279.273C227.535 278.929 227.955 278.49 228.282 277.959C228.608 277.428 228.826 276.837 228.935 276.187C229.054 275.553 229.046 274.885 228.909 274.183C228.755 273.492 228.459 272.8 228.021 272.107L223.432 264.857L225.626 263.388L234.225 276.976L232.43 278.177L230.609 275.86L230.509 275.927C230.547 276.623 230.495 277.307 230.353 277.98C230.222 278.669 229.973 279.305 229.608 279.886C229.253 280.485 228.768 280.99 228.153 281.402Z" fill="black"/>
<path d="M207.319 276.307C206.961 276.484 206.606 276.693 206.255 276.934C205.913 277.193 205.642 277.416 205.443 277.604L204.591 275.784C204.782 275.533 205.094 275.256 205.526 274.952C205.95 274.631 206.376 274.364 206.807 274.151C207.559 273.778 208.318 273.558 209.082 273.492C209.836 273.453 210.563 273.662 211.263 274.119C211.962 274.576 212.588 275.393 213.139 276.57L217.108 285.047L219.151 284.035L219.685 285.176L218.06 287.153L218.57 290.716L217.172 291.408L215.607 288.066L211.44 290.13L210.575 288.283L214.742 286.219L210.799 277.796C210.383 276.909 209.867 276.35 209.252 276.119C208.626 275.916 207.982 275.978 207.319 276.307Z" fill="black"/>
<path d="M193.816 296.68L188.877 281.378L190.921 280.68L191.944 282.581L192.058 282.542C192.208 281.899 192.483 281.319 192.883 280.802C193.283 280.285 193.762 279.847 194.318 279.488C194.869 279.11 195.475 278.807 196.138 278.581C197.349 278.168 198.432 278.009 199.388 278.105C200.331 278.227 201.143 278.626 201.823 279.302C202.504 279.978 203.053 280.964 203.471 282.258L206.706 292.279L204.179 293.141L200.999 283.292C200.606 282.074 200.037 281.254 199.291 280.832C198.546 280.411 197.596 280.397 196.441 280.791C195.306 281.179 194.484 281.692 193.975 282.331C193.454 282.995 193.193 283.781 193.193 284.69C193.179 285.625 193.363 286.682 193.744 287.862L196.315 295.827L193.816 296.68Z" fill="black"/>
<path d="M182.516 299.553C180.633 299.93 179.124 299.753 177.988 299.022C176.856 298.311 176.097 296.933 175.71 294.89L173.762 284.602L176.321 284.09L178.235 294.2C178.477 295.477 178.942 296.374 179.63 296.888C180.318 297.403 181.269 297.539 182.485 297.296C184.231 296.946 185.344 296.213 185.824 295.097C186.305 293.981 186.371 292.499 186.021 290.652L184.469 282.458L187.058 281.939L190.049 297.738L187.961 298.157L187.171 296.082L187.024 296.111C186.775 296.732 186.429 297.27 185.986 297.726C185.528 298.206 185.001 298.597 184.407 298.899C183.813 299.202 183.183 299.42 182.516 299.553Z" fill="black"/>
<path d="M166.034 301.672C164.657 301.763 163.461 301.542 162.445 301.007C161.41 300.474 160.599 299.676 160.011 298.613C159.405 297.57 159.057 296.321 158.966 294.863L158.867 293.276L169.853 292.551C169.7 290.737 169.154 289.38 168.216 288.48C167.259 287.601 165.983 287.214 164.386 287.32C163.369 287.387 162.476 287.536 161.709 287.767C160.923 288.02 160.122 288.353 159.307 288.768L159.163 286.462C159.959 286.049 160.751 285.736 161.539 285.524C162.326 285.291 163.268 285.139 164.366 285.066C165.883 284.966 167.249 285.187 168.465 285.728C169.661 286.27 170.626 287.128 171.361 288.302C172.077 289.498 172.49 290.984 172.601 292.76C172.711 294.517 172.516 296.043 172.015 297.339C171.495 298.636 170.727 299.659 169.712 300.407C168.677 301.157 167.451 301.579 166.034 301.672ZM165.929 299.515C167.186 299.432 168.159 298.957 168.846 298.089C169.514 297.243 169.874 296.097 169.924 294.651L161.752 295.191C161.809 296.109 161.998 296.898 162.32 297.558C162.642 298.218 163.104 298.719 163.706 299.06C164.29 299.422 165.031 299.574 165.929 299.515Z" fill="black"/>
</g>
<defs>
<filter id="filter0_d_4_51" x="15.5705" y="23.9265" width="288.308" height="293.135" filterUnits="userSpaceOnUse" color-interpolation-filters="sRGB">
<feFlood flood-opacity="0" result="BackgroundImageFix"/>
<feColorMatrix in="SourceAlpha" type="matrix" values="0 0 0 0 0 0 0 0 0 0 0 0 0 0 0 0 0 0 127 0" result="hardAlpha"/>
<feOffset dy="4"/>
<feGaussianBlur stdDeviation="2"/>
<feComposite in2="hardAlpha" operator="out"/>
<feColorMatrix type="matrix" values="0 0 0 0 0 0 0 0 0 0 0 0 0 0 0 0 0 0 0.25 0"/>
<feBlend mode="normal" in2="BackgroundImageFix" result="effect1_dropShadow_4_51"/>
<feBlend mode="normal" in="SourceGraphic" in2="effect1_dropShadow_4_51" result="shape"/>
</filter>
</defs>
</svg>
